<svg xmlns="http://www.w3.org/2000/svg" viewBox="-6.00 -68.50 369.50 129.39" width="370" height="129" role="img" aria-label="Sauvage Quatuor">
  <title>Sauvage Quatuor</title>
  <g fill="#171613"><path d="M13.8 -50.400000000000006Q13.8 -46.2 15.850000000000001 -43.25Q17.900000000000002 -40.300000000000004 21.150000000000002 -38.1Q24.400000000000002 -35.9 28.0 -33.800000000000004Q31.700000000000003 -31.700000000000003 35.1 -29.35Q38.5 -27.0 40.75 -23.75Q43.0 -20.5 43.0 -15.700000000000001Q43.0 -11.100000000000001 40.75 -7.250000000000001Q38.5 -3.4000000000000004 34.0 -1.1Q29.5 1.2000000000000002 22.700000000000003 1.2000000000000002Q20.5 1.2000000000000002 18.35 0.9000000000000001Q16.2 0.6000000000000001 13.95 -0.14999999999999997Q11.700000000000001 -0.9 9.1 -2.2Q8.6 -2.5 8.45 -2.95Q8.3 -3.4000000000000004 8.200000000000001 -4.1000000000000005L6.7 -17.1Q6.6000000000000005 -17.6 7.15 -17.65Q7.7 -17.7 7.800000000000001 -17.3Q8.200000000000001 -14.3 9.400000000000002 -11.3Q10.600000000000001 -8.3 12.650000000000002 -5.800000000000001Q14.700000000000001 -3.3000000000000003 17.75 -1.7500000000000002Q20.8 -0.2 24.900000000000002 -0.2Q28.0 -0.2 30.900000000000002 -1.35Q33.800000000000004 -2.5 35.650000000000006 -5.1Q37.5 -7.7 37.5 -12.200000000000001Q37.5 -17.1 35.35 -20.35Q33.2 -23.6 29.900000000000002 -25.950000000000003Q26.6 -28.3 22.900000000000002 -30.400000000000002Q19.400000000000002 -32.5 16.1 -34.8Q12.8 -37.1 10.75 -40.25Q8.700000000000001 -43.400000000000006 8.700000000000001 -48.1Q8.700000000000001 -53.300000000000004 11.3 -56.75Q13.9 -60.2 18.05 -61.900000000000006Q22.200000000000003 -63.6 26.700000000000003 -63.6Q29.3 -63.6 32.15 -63.05Q35.0 -62.5 38.1 -61.2Q38.900000000000006 -60.900000000000006 39.25 -60.45Q39.6 -60.0 39.6 -59.5L40.5 -48.900000000000006Q40.5 -48.5 39.95 -48.5Q39.400000000000006 -48.5 39.300000000000004 -48.900000000000006Q39.1 -51.1 38.25 -53.45Q37.4 -55.800000000000004 35.75 -57.800000000000004Q34.1 -59.800000000000004 31.55 -61.050000000000004Q29.0 -62.300000000000004 25.400000000000002 -62.300000000000004Q21.1 -62.300000000000004 18.55 -60.5Q16.0 -58.7 14.9 -56.0Q13.8 -53.300000000000004 13.8 -50.400000000000006Z M87.8 0.6000000000000001Q87.4 0.8 87.0 0.8Q85.8 0.8 84.8 -1.3000000000000003Q83.8 -3.4000000000000004 83.8 -7.4V-26.700000000000003Q83.8 -32.9 81.85 -35.3Q79.9 -37.7 77.0 -37.7Q74.5 -37.7 72.85 -36.55Q71.2 -35.4 70.35 -33.7Q69.5 -32.0 69.1 -30.5Q68.9 -29.5 68.4 -28.15Q67.9 -26.8 65.9 -26.8Q64.4 -26.8 63.650000000000006 -27.700000000000003Q62.9 -28.6 62.9 -29.6Q62.9 -31.3 64.7 -33.050000000000004Q66.5 -34.800000000000004 69.25 -36.300000000000004Q72.0 -37.800000000000004 75.0 -38.7Q78.0 -39.6 80.5 -39.6Q84.6 -39.6 86.5 -36.95Q88.4 -34.300000000000004 88.4 -29.700000000000003V-10.8Q88.4 -7.2 89.25 -5.550000000000001Q90.1 -3.9000000000000004 92.2 -3.9000000000000004Q94.1 -3.9000000000000004 97.7 -5.4Q98.2 -5.6000000000000005 98.4 -5.050000000000001Q98.6 -4.5 98.1 -4.3ZM70.1 0.7000000000000001Q66.4 0.7000000000000001 64.45 -1.35Q62.5 -3.4000000000000004 62.5 -6.1000000000000005Q62.5 -7.800000000000001 63.35 -9.4Q64.2 -11.0 66.35 -12.5Q68.5 -14.0 72.3 -15.4L84.8 -20.1L85.0 -18.8L73.2 -14.3Q71.1 -13.5 70.0 -12.55Q68.9 -11.600000000000001 68.5 -10.55Q68.1 -9.5 68.1 -8.4Q68.1 -6.2 69.55 -4.4Q71.0 -2.6 73.8 -2.6Q74.9 -2.6 76.1 -2.95Q77.3 -3.3000000000000003 79.0 -4.3L85.7 -8.200000000000001L85.9 -7.0L78.4 -2.3000000000000003Q75.9 -0.7000000000000001 74.0 0.0Q72.1 0.7000000000000001 70.1 0.7000000000000001Z M124.4 0.7000000000000001Q119.60000000000001 0.7000000000000001 116.80000000000001 -2.35Q114.0 -5.4 114.0 -11.5V-27.0Q114.0 -31.1 113.4 -32.85Q112.80000000000001 -34.6 111.10000000000001 -34.6Q109.60000000000001 -34.6 107.5 -33.6Q107.10000000000001 -33.4 106.85000000000001 -34.0Q106.60000000000001 -34.6 107.0 -34.7L117.5 -39.400000000000006Q117.7 -39.5 117.9 -39.5Q118.10000000000001 -39.5 118.4 -39.3Q118.7 -39.1 118.7 -38.800000000000004V-14.5Q118.7 -8.4 120.80000000000001 -5.550000000000001Q122.9 -2.7 127.10000000000001 -2.7Q131.20000000000002 -2.7 135.3 -5.15Q139.4 -7.6000000000000005 142.5 -11.9L143.0 -10.8Q138.10000000000002 -4.6000000000000005 133.60000000000002 -1.9500000000000002Q129.10000000000002 0.7000000000000001 124.4 0.7000000000000001ZM145.3 -38.800000000000004V-10.5Q145.3 -7.1000000000000005 146.15 -5.550000000000001Q147.0 -4.0 149.0 -4.0Q150.10000000000002 -4.0 151.40000000000003 -4.4Q152.70000000000002 -4.800000000000001 154.60000000000002 -5.5Q155.10000000000002 -5.7 155.3 -5.15Q155.5 -4.6000000000000005 155.10000000000002 -4.4L143.9 0.8Q143.70000000000002 0.9 143.5 0.9Q142.8 0.9 141.75 -1.1500000000000001Q140.70000000000002 -3.2 140.70000000000002 -7.1000000000000005V-27.0Q140.70000000000002 -31.1 140.05 -32.85Q139.4 -34.6 137.70000000000002 -34.6Q136.20000000000002 -34.6 134.10000000000002 -33.6Q133.70000000000002 -33.4 133.5 -34.0Q133.3 -34.6 133.70000000000002 -34.7L144.20000000000002 -39.400000000000006Q144.4 -39.5 144.5 -39.5Q144.70000000000002 -39.5 145.0 -39.3Q145.3 -39.1 145.3 -38.800000000000004Z M205.9 -38.6Q206.10000000000002 -38.6 206.10000000000002 -38.0Q206.10000000000002 -37.4 205.9 -37.4Q203.5 -37.4 201.9 -36.0Q200.3 -34.6 198.60000000000002 -30.5L186.10000000000002 -0.1Q186.0 0.30000000000000004 185.05 0.30000000000000004Q184.10000000000002 0.30000000000000004 183.9 -0.1L170.20000000000002 -30.3Q168.20000000000002 -34.800000000000004 166.9 -36.1Q165.6 -37.4 163.8 -37.4Q163.5 -37.4 163.5 -38.0Q163.5 -38.6 163.8 -38.6Q165.20000000000002 -38.6 166.85000000000002 -38.5Q168.5 -38.400000000000006 169.9 -38.400000000000006Q173.20000000000002 -38.400000000000006 175.60000000000002 -38.5Q178.0 -38.6 180.0 -38.6Q180.3 -38.6 180.3 -38.0Q180.3 -37.4 180.0 -37.4Q176.9 -37.4 175.05 -36.65Q173.20000000000002 -35.9 174.3 -33.5L187.3 -5.1000000000000005L185.0 -2.2L196.9 -31.1Q198.3 -34.6 196.55 -36.0Q194.8 -37.4 189.20000000000002 -37.4Q189.0 -37.4 189.0 -38.0Q189.0 -38.6 189.20000000000002 -38.6Q191.60000000000002 -38.6 193.75 -38.5Q195.9 -38.400000000000006 199.3 -38.400000000000006Q201.4 -38.400000000000006 202.7 -38.5Q204.0 -38.6 205.9 -38.6Z M246.00000000000003 0.6000000000000001Q245.60000000000002 0.8 245.20000000000002 0.8Q244.00000000000003 0.8 243.00000000000003 -1.3000000000000003Q242.00000000000003 -3.4000000000000004 242.00000000000003 -7.4V-26.700000000000003Q242.00000000000003 -32.9 240.05 -35.3Q238.10000000000002 -37.7 235.20000000000002 -37.7Q232.70000000000002 -37.7 231.05 -36.55Q229.4 -35.4 228.55 -33.7Q227.70000000000002 -32.0 227.3 -30.5Q227.10000000000002 -29.5 226.60000000000002 -28.15Q226.10000000000002 -26.8 224.10000000000002 -26.8Q222.60000000000002 -26.8 221.85000000000002 -27.700000000000003Q221.10000000000002 -28.6 221.10000000000002 -29.6Q221.10000000000002 -31.3 222.90000000000003 -33.050000000000004Q224.70000000000002 -34.800000000000004 227.45000000000002 -36.300000000000004Q230.20000000000002 -37.800000000000004 233.20000000000002 -38.7Q236.20000000000002 -39.6 238.70000000000002 -39.6Q242.8 -39.6 244.70000000000002 -36.95Q246.60000000000002 -34.300000000000004 246.60000000000002 -29.700000000000003V-10.8Q246.60000000000002 -7.2 247.45000000000002 -5.550000000000001Q248.3 -3.9000000000000004 250.40000000000003 -3.9000000000000004Q252.3 -3.9000000000000004 255.90000000000003 -5.4Q256.40000000000003 -5.6000000000000005 256.6 -5.050000000000001Q256.8 -4.5 256.3 -4.3ZM228.3 0.7000000000000001Q224.60000000000002 0.7000000000000001 222.65000000000003 -1.35Q220.70000000000002 -3.4000000000000004 220.70000000000002 -6.1000000000000005Q220.70000000000002 -7.800000000000001 221.55 -9.4Q222.4 -11.0 224.55 -12.5Q226.70000000000002 -14.0 230.50000000000003 -15.4L243.00000000000003 -20.1L243.20000000000002 -18.8L231.4 -14.3Q229.3 -13.5 228.20000000000002 -12.55Q227.10000000000002 -11.600000000000001 226.70000000000002 -10.55Q226.3 -9.5 226.3 -8.4Q226.3 -6.2 227.75 -4.4Q229.20000000000002 -2.6 232.00000000000003 -2.6Q233.10000000000002 -2.6 234.3 -2.95Q235.50000000000003 -3.3000000000000003 237.20000000000002 -4.3L243.90000000000003 -8.200000000000001L244.10000000000002 -7.0L236.60000000000002 -2.3000000000000003Q234.10000000000002 -0.7000000000000001 232.20000000000002 0.0Q230.3 0.7000000000000001 228.3 0.7000000000000001Z M282.5 28.0Q275.5 28.0 271.75 24.85Q268.0 21.700000000000003 268.0 17.1Q268.0 11.9 272.35 7.3500000000000005Q276.70000000000005 2.8000000000000003 284.1 -1.4000000000000001L285.20000000000005 -0.1Q281.90000000000003 1.5 279.1 3.35Q276.3 5.2 274.6 7.75Q272.90000000000003 10.3 272.90000000000003 14.200000000000001Q272.90000000000003 17.400000000000002 274.35 19.85Q275.8 22.3 278.75 23.65Q281.70000000000005 25.0 286.20000000000005 25.0Q293.5 25.0 298.25 21.3Q303.0 17.6 303.0 11.200000000000001Q303.0 7.1000000000000005 300.95000000000005 5.300000000000001Q298.90000000000003 3.5 295.30000000000007 3.05Q291.70000000000005 2.6 286.90000000000003 2.6Q282.3 2.6 278.55 2.25Q274.8 1.9000000000000001 272.6 0.4Q270.40000000000003 -1.1 270.40000000000003 -4.4Q270.40000000000003 -7.800000000000001 272.5 -10.15Q274.6 -12.5 278.20000000000005 -15.600000000000001L279.3 -14.600000000000001Q276.8 -12.5 275.8 -10.850000000000001Q274.8 -9.200000000000001 274.8 -7.4Q274.8 -5.4 276.15 -4.2Q277.5 -3.0 280.8 -2.45Q284.1 -1.9000000000000001 289.90000000000003 -1.9000000000000001Q292.1 -1.9000000000000001 295.0 -1.8000000000000003Q297.90000000000003 -1.7000000000000002 300.70000000000005 -0.9000000000000001Q303.5 -0.1 305.35 2.0000000000000004Q307.20000000000005 4.1000000000000005 307.20000000000005 8.1Q307.20000000000005 12.200000000000001 305.15000000000003 15.8Q303.1 19.400000000000002 299.6 22.150000000000002Q296.1 24.900000000000002 291.65000000000003 26.450000000000003Q287.20000000000005 28.0 282.5 28.0ZM285.70000000000005 -13.3Q280.90000000000003 -13.3 277.55000000000007 -15.05Q274.20000000000005 -16.8 272.40000000000003 -19.75Q270.6 -22.700000000000003 270.6 -26.200000000000003Q270.6 -29.8 272.45000000000005 -32.75Q274.3 -35.7 277.8 -37.5Q281.3 -39.300000000000004 286.20000000000005 -39.300000000000004Q291.70000000000005 -39.300000000000004 294.95000000000005 -37.300000000000004Q298.20000000000005 -35.300000000000004 299.6 -32.300000000000004Q301.0 -29.3 301.0 -26.400000000000002Q301.0 -23.1 299.25 -20.1Q297.5 -17.1 294.1 -15.200000000000001Q290.70000000000005 -13.3 285.70000000000005 -13.3ZM287.5 -14.700000000000001Q291.0 -14.700000000000001 293.3 -16.950000000000003Q295.6 -19.200000000000003 295.6 -24.400000000000002Q295.6 -28.6 294.05 -31.6Q292.5 -34.6 289.9 -36.25Q287.3 -37.9 284.0 -37.9Q280.5 -37.9 278.20000000000005 -35.75Q275.90000000000003 -33.6 275.90000000000003 -28.400000000000002Q275.90000000000003 -23.6 277.70000000000005 -20.55Q279.5 -17.5 282.15 -16.1Q284.8 -14.700000000000001 287.5 -14.700000000000001ZM294.70000000000005 -31.900000000000002V-35.300000000000004Q297.8 -37.1 300.70000000000005 -38.25Q303.6 -39.400000000000006 307.1 -39.400000000000006Q307.3 -39.400000000000006 307.45000000000005 -38.7Q307.6 -38.0 307.6 -37.300000000000004Q307.6 -36.300000000000004 307.35 -35.150000000000006Q307.1 -34.0 306.70000000000005 -34.2Q306.0 -34.5 304.3 -35.05Q302.6 -35.6 300.20000000000005 -35.6Q298.90000000000003 -35.6 297.80000000000007 -35.400000000000006Q296.70000000000005 -35.2 295.6 -34.9Z M338.5 1.2000000000000002Q332.6 1.2000000000000002 328.65 -1.5499999999999998Q324.7 -4.3 322.7 -8.700000000000001Q320.7 -13.100000000000001 320.7 -18.0Q320.7 -24.1 323.5 -28.950000000000003Q326.3 -33.800000000000004 331.05 -36.650000000000006Q335.8 -39.5 341.4 -39.5Q347.1 -39.5 349.9 -36.400000000000006Q352.7 -33.300000000000004 352.7 -28.1Q352.7 -26.8 352.45 -26.200000000000003Q352.2 -25.6 351.5 -25.6H346.8Q347.3 -31.8 344.85 -34.65Q342.4 -37.5 338.2 -37.5Q332.6 -37.5 329.5 -33.25Q326.4 -29.0 326.4 -21.6Q326.4 -16.0 328.2 -11.55Q330.0 -7.1000000000000005 333.5 -4.550000000000001Q337.0 -2.0 342.0 -2.0Q345.5 -2.0 347.75 -3.0500000000000003Q350.0 -4.1000000000000005 352.1 -5.4Q352.3 -5.6000000000000005 352.65 -5.15Q353.0 -4.7 352.8 -4.4Q349.3 -1.4000000000000001 345.75 -0.09999999999999998Q342.2 1.2000000000000002 338.5 1.2000000000000002ZM325.1 -25.5 325.0 -26.700000000000003 347.8 -27.1V-25.6Z"/></g>
  <rect x="123.00" y="30.00" width="105.88" height="1.14" fill="#d9d4ca"/>
  <g fill="#7c766b" transform="translate(123.00,54.89)"><path d="M4.7347656250000005 -3.194140625H6.1890625L7.231640625000001 -1.8394531250000001L7.6898437500000005 -1.2617187500000002L9.336718750000001 0.8964843750000001H7.829296875000001L6.733593750000001 -0.5378906250000001L6.368359375000001 -1.04921875ZM5.21953125 0.1328125Q3.9378906250000005 0.1328125 2.9251953125000005 -0.47480468750000004Q1.9125 -1.082421875 1.3314453125 -2.2212890625000004Q0.7503906250000001 -3.36015625 0.7503906250000001 -4.940625000000001Q0.7503906250000001 -6.5277343750000005 1.3314453125 -7.6666015625Q1.9125 -8.805468750000001 2.9251953125000005 -9.416406250000001Q3.9378906250000005 -10.027343750000002 5.21953125 -10.027343750000002Q6.501171875000001 -10.027343750000002 7.5072265625000005 -9.416406250000001Q8.51328125 -8.805468750000001 9.0943359375 -7.6666015625Q9.675390625 -6.5277343750000005 9.675390625 -4.940625000000001Q9.675390625 -3.36015625 9.0943359375 -2.2212890625000004Q8.51328125 -1.082421875 7.5072265625000005 -0.47480468750000004Q6.501171875000001 0.1328125 5.21953125 0.1328125ZM5.21953125 -1.2484375Q6.0628906250000005 -1.2484375 6.730273437500001 -1.6701171875Q7.397656250000001 -2.091796875 7.786132812500001 -2.9185546875000004Q8.174609375000001 -3.7453125000000003 8.174609375000001 -4.940625000000001Q8.174609375000001 -6.149218750000001 7.786132812500001 -6.975976562500001Q7.397656250000001 -7.802734375000001 6.730273437500001 -8.224414062500001Q6.0628906250000005 -8.64609375 5.21953125 -8.64609375Q4.3695312500000005 -8.64609375 3.6988281250000004 -8.221093750000001Q3.028125 -7.796093750000001 2.6396484375 -6.9693359375Q2.2511718750000003 -6.142578125000001 2.2511718750000003 -4.940625000000001Q2.2511718750000003 -3.7453125000000003 2.6396484375 -2.921875Q3.028125 -2.0984375 3.6988281250000004 -1.6734375000000001Q4.3695312500000005 -1.2484375 5.21953125 -1.2484375Z M21.748578125 0.152734375Q20.55990625 0.152734375 19.6700625 -0.30546875000000007Q18.780218750000003 -0.7636718750000001 18.2921328125 -1.5638671875Q17.804046875 -2.3640625 17.804046875 -3.4000000000000004V-9.894531250000002H19.318109375000002V-3.526171875Q19.318109375000002 -2.8554687500000004 19.613617187500004 -2.3375000000000004Q19.909125000000003 -1.8195312500000003 20.45365625 -1.5207031250000003Q20.9981875 -1.221875 21.748578125 -1.221875Q22.492328125 -1.221875 23.0335390625 -1.5207031250000003Q23.57475 -1.8195312500000003 23.866937500000002 -2.3375000000000004Q24.159125000000003 -2.8554687500000004 24.159125000000003 -3.526171875V-9.894531250000002H25.679828125V-3.4000000000000004Q25.679828125 -2.3640625 25.1917421875 -1.5638671875Q24.70365625 -0.7636718750000001 23.817132812500002 -0.30546875000000007Q22.930609375000003 0.152734375 21.748578125 0.152734375Z M33.370203125 0.0 36.889734375 -9.894531250000002H38.749109375L42.335046875 0.0H40.6948125L38.76903125 -5.505078125000001Q38.54325 -6.175781250000001 38.2743046875 -7.085546875Q38.005359375 -7.995312500000001 37.65340625 -9.270312500000001H37.958875Q37.620203125 -7.982031250000001 37.3512578125 -7.062304687500001Q37.0823125 -6.142578125000001 36.876453125 -5.505078125000001L35.0104375 0.0ZM35.2760625 -2.609765625V-3.8714843750000005H40.422546875V-2.609765625Z M49.527375000000006 -8.59296875V-9.894531250000002H57.210578125000005V-8.59296875H54.13596875V0.0H52.615265625000006V-8.59296875Z M69.10446875000001 0.152734375Q67.91579687500001 0.152734375 67.02595312500002 -0.30546875000000007Q66.13610937500002 -0.7636718750000001 65.64802343750002 -1.5638671875Q65.15993750000001 -2.3640625 65.15993750000001 -3.4000000000000004V-9.894531250000002H66.674V-3.526171875Q66.674 -2.8554687500000004 66.96950781250001 -2.3375000000000004Q67.26501562500002 -1.8195312500000003 67.80954687500002 -1.5207031250000003Q68.35407812500002 -1.221875 69.10446875000001 -1.221875Q69.84821875000002 -1.221875 70.38942968750001 -1.5207031250000003Q70.93064062500001 -1.8195312500000003 71.222828125 -2.3375000000000004Q71.51501562500002 -2.8554687500000004 71.51501562500002 -3.526171875V-9.894531250000002H73.03571875000002V-3.4000000000000004Q73.03571875000002 -2.3640625 72.54763281250001 -1.5638671875Q72.05954687500001 -0.7636718750000001 71.1730234375 -0.30546875000000007Q70.28650000000002 0.152734375 69.10446875000001 0.152734375Z M85.60695312500002 0.1328125Q84.32531250000001 0.1328125 83.31261718750001 -0.47480468750000004Q82.29992187500001 -1.082421875 81.71886718750001 -2.2212890625000004Q81.13781250000001 -3.36015625 81.13781250000001 -4.940625000000001Q81.13781250000001 -6.5277343750000005 81.71886718750001 -7.6666015625Q82.29992187500001 -8.805468750000001 83.31261718750001 -9.416406250000001Q84.32531250000001 -10.027343750000002 85.60695312500002 -10.027343750000002Q86.88859375000001 -10.027343750000002 87.89464843750002 -9.416406250000001Q88.90070312500002 -8.805468750000001 89.48175781250002 -7.6666015625Q90.06281250000002 -6.5277343750000005 90.06281250000002 -4.940625000000001Q90.06281250000002 -3.36015625 89.48175781250002 -2.2212890625000004Q88.90070312500002 -1.082421875 87.89464843750002 -0.47480468750000004Q86.88859375000001 0.1328125 85.60695312500002 0.1328125ZM85.60695312500002 -1.2484375Q86.45031250000001 -1.2484375 87.11769531250002 -1.6701171875Q87.78507812500001 -2.091796875 88.17355468750002 -2.9185546875000004Q88.56203125000002 -3.7453125000000003 88.56203125000002 -4.940625000000001Q88.56203125000002 -6.149218750000001 88.17355468750002 -6.975976562500001Q87.78507812500001 -7.802734375000001 87.11769531250002 -8.224414062500001Q86.45031250000001 -8.64609375 85.60695312500002 -8.64609375Q84.75695312500001 -8.64609375 84.08625 -8.221093750000001Q83.41554687500002 -7.796093750000001 83.02707031250002 -6.9693359375Q82.63859375000001 -6.142578125000001 82.63859375000001 -4.940625000000001Q82.63859375000001 -3.7453125000000003 83.02707031250002 -2.921875Q83.41554687500002 -2.0984375 84.08625 -1.6734375000000001Q84.75695312500001 -1.2484375 85.60695312500002 -1.2484375Z M98.16490625000002 0.0V-9.894531250000002H101.71100000000001Q102.85318750000002 -9.894531250000002 103.61685937500002 -9.499414062500001Q104.38053125000002 -9.104296875000001 104.75904687500002 -8.400390625Q105.13756250000002 -7.696484375000001 105.13756250000002 -6.78671875Q105.13756250000002 -5.870312500000001 104.75572656250002 -5.1830078125000005Q104.37389062500002 -4.495703125 103.61021875000002 -4.1171875Q102.84654687500002 -3.7386718750000005 101.69771875000002 -3.7386718750000005H99.03482812500002V-5.0335937500000005H101.55162500000002Q102.28209375000002 -5.0335937500000005 102.73033593750002 -5.2427734375Q103.17857812500002 -5.451953125 103.391078125 -5.84375Q103.60357812500001 -6.235546875000001 103.60357812500001 -6.78671875Q103.60357812500001 -7.344531250000001 103.391078125 -7.749609375000001Q103.17857812500002 -8.154687500000001 102.727015625 -8.3771484375Q102.27545312500001 -8.599609375000002 101.53834375000001 -8.599609375000002H99.67896875000001V0.0ZM103.78951562500002 0.0 101.39225000000002 -4.4691406250000005H103.07232812500001L105.50943750000002 0.0Z"/></g>
</svg>
